<?xml version="1.0" encoding="utf-8"?>
<!-- Generator: Adobe Illustrator 23.0.3, SVG Export Plug-In . SVG Version: 6.00 Build 0)  -->
<svg version="1.1" id="Layer_1" xmlns="http://www.w3.org/2000/svg" xmlns:xlink="http://www.w3.org/1999/xlink" x="0px" y="0px"
	 viewBox="0 0 384 385.1" style="enable-background:new 0 0 384 385.1;" xml:space="preserve">
<style type="text/css">
	.st0{fill:#E6461A;}
</style>
<path class="st0" d="M206,0c11.1,2,22.4,3.3,33.3,6c75.2,18.6,132.2,82.4,142.8,159.4c14.1,102.4-52.5,196-154,216.3
	c-7.3,1.5-14.8,2.3-22.2,3.4c-34,0-68,0-102,0c0-64.5,0-129,0.1-193.4c0-4.3,0.4-8.7,1.1-12.9c6.6-43.3,46.1-76,89.4-74.3
	c45.7,1.9,82.4,37.2,85.3,82.2c4.3,66.8-63.7,113.7-124.6,85.9c-1.3-0.6-2.6-1.1-4.5-1.8c0,20.5-0.1,40.3,0.2,60.1
	c0,1.2,2.3,3,3.8,3.4c19.5,5.6,39.4,6.7,59.4,3.5c84.6-13.6,139.2-93.9,120.9-177.3c-16.9-77.2-94.1-127.7-171-112
	c-69.6,14-118.2,73.4-118.4,144.6c-0.1,62.3,0,124.6,0,186.9c0,1.7,0.2,3.3,0.4,5c-15.3,0-30.7,0-46,0c0-69,0-138,0-207
	c0.6-3.9,1.3-7.8,1.8-11.8C12.4,88.5,69.1,24.9,145.2,5.9C156,3.2,167.1,1.9,178,0C187.3,0,196.7,0,206,0z"/>
</svg>
